<svg width="28" height="28" viewBox="0 0 28 28" fill="none" xmlns="http://www.w3.org/2000/svg">
<path d="M22.5 0.900391C23.72 0.900391 24.8903 1.3844 25.7529 2.24707C26.6156 3.10974 27.0996 4.28 27.0996 5.5V22.5C27.0996 23.72 26.6156 24.8903 25.7529 25.7529C24.8903 26.6156 23.72 27.0996 22.5 27.0996H5.5C4.28 27.0996 3.10974 26.6156 2.24707 25.7529C1.3844 24.8903 0.900391 23.72 0.900391 22.5V5.5C0.900391 4.28 1.3844 3.10974 2.24707 2.24707C3.10974 1.3844 4.28 0.900391 5.5 0.900391H22.5ZM3.09961 22.5C3.09961 23.1365 3.35265 23.7472 3.80273 24.1973C4.25282 24.6474 4.86348 24.9004 5.5 24.9004H22.5C23.1365 24.9004 23.7472 24.6474 24.1973 24.1973C24.6474 23.7472 24.9004 23.1365 24.9004 22.5V9.09961H3.09961V22.5ZM8.5 17.9004C8.92435 17.9004 9.33178 18.0681 9.63184 18.3682C9.93189 18.6682 10.0996 19.0757 10.0996 19.5C10.0996 19.9243 9.93189 20.3318 9.63184 20.6318C9.33178 20.9319 8.92435 21.0996 8.5 21.0996C8.07565 21.0996 7.66822 20.9319 7.36816 20.6318C7.06811 20.3318 6.90039 19.9243 6.90039 19.5C6.90039 19.0757 7.06811 18.6682 7.36816 18.3682C7.66822 18.0681 8.07565 17.9004 8.5 17.9004ZM14 17.9004C14.4243 17.9004 14.8318 18.0681 15.1318 18.3682C15.4319 18.6682 15.5996 19.0757 15.5996 19.5C15.5996 19.9243 15.4319 20.3318 15.1318 20.6318C14.8318 20.9319 14.4243 21.0996 14 21.0996C13.5757 21.0996 13.1682 20.9319 12.8682 20.6318C12.5681 20.3318 12.4004 19.9243 12.4004 19.5C12.4004 19.0757 12.5681 18.6682 12.8682 18.3682C13.1682 18.0681 13.5757 17.9004 14 17.9004ZM8.6582 12.9082C9.02444 12.9446 9.36931 13.1056 9.63184 13.3682C9.93189 13.6682 10.0996 14.0757 10.0996 14.5C10.0996 14.9243 9.93189 15.3318 9.63184 15.6318C9.33178 15.9319 8.92435 16.0996 8.5 16.0996C8.07565 16.0996 7.66822 15.9319 7.36816 15.6318C7.06811 15.3318 6.90039 14.9243 6.90039 14.5C6.90039 14.0757 7.06811 13.6682 7.36816 13.3682C7.66822 13.0681 8.07565 12.9004 8.5 12.9004L8.6582 12.9082ZM14 12.9004C14.4243 12.9004 14.8318 13.0681 15.1318 13.3682C15.4319 13.6682 15.5996 14.0757 15.5996 14.5C15.5996 14.9243 15.4319 15.3318 15.1318 15.6318C14.8318 15.9319 14.4243 16.0996 14 16.0996C13.5757 16.0996 13.1682 15.9319 12.8682 15.6318C12.5681 15.3318 12.4004 14.9243 12.4004 14.5C12.4004 14.0757 12.5681 13.6682 12.8682 13.3682C13.1682 13.0681 13.5757 12.9004 14 12.9004ZM19.5 12.9004C19.9243 12.9004 20.3318 13.0681 20.6318 13.3682C20.9319 13.6682 21.0996 14.0757 21.0996 14.5C21.0996 14.9243 20.9319 15.3318 20.6318 15.6318C20.3318 15.9319 19.9243 16.0996 19.5 16.0996C19.0757 16.0996 18.6682 15.9319 18.3682 15.6318C18.0681 15.3318 17.9004 14.9243 17.9004 14.5C17.9004 14.0757 18.0681 13.6682 18.3682 13.3682C18.6682 13.0681 19.0757 12.9004 19.5 12.9004ZM5.5 3.09961C4.86348 3.09961 4.25282 3.35265 3.80273 3.80273C3.35265 4.25282 3.09961 4.86348 3.09961 5.5V6.90039H24.9004V5.5C24.9004 4.86348 24.6474 4.25282 24.1973 3.80273C23.7472 3.35265 23.1365 3.09961 22.5 3.09961H5.5Z" fill="black" stroke="black" stroke-width="0.2"/>
</svg>
