<svg width="28" height="28" viewBox="0 0 28 28" fill="none" xmlns="http://www.w3.org/2000/svg">
<path d="M14.0078 15.8896C22.7102 15.8896 28 21.6191 28 25.5811C28 27.2434 26.7333 28 24.0732 28H3.94336C1.26686 28 0 27.243 0 25.5801C0.000277606 21.6195 5.3052 15.8898 14.0078 15.8896ZM14.0078 18.1709C6.65188 18.1709 2.58105 22.8134 2.58105 25.293C2.58116 25.6101 2.75681 25.7158 3.17383 25.7158H24.8428C25.2591 25.7158 25.4189 25.6101 25.4189 25.293C25.4189 22.8134 21.3649 18.171 14.0078 18.1709ZM14.0078 0C17.8543 0 20.9316 3.03885 20.9316 6.90918C20.9316 10.8098 17.8222 14.0146 14.0078 14.0146C10.2093 14.0144 7.09971 10.8245 7.08398 6.93945C7.08402 3.09959 10.2094 0.000213721 14.0078 0ZM14.0078 2.2832C11.6359 2.28343 9.66427 4.30892 9.66406 6.93848C9.66406 9.61531 11.6679 11.7312 14.0078 11.7314C16.3793 11.7314 18.3516 9.58488 18.3516 6.90918C18.3515 4.27865 16.4115 2.2832 14.0078 2.2832Z" fill="#427BF0"/>
<path d="M14.0078 15.8896C22.7102 15.8896 28 21.6191 28 25.5811C28 27.2434 26.7333 28 24.0732 28H3.94336C1.26686 28 0 27.243 0 25.5801C0.000277606 21.6195 5.3052 15.8898 14.0078 15.8896ZM14.0078 18.1709C6.65188 18.1709 2.58105 22.8134 2.58105 25.293C2.58116 25.6101 2.75681 25.7158 3.17383 25.7158H24.8428C25.2591 25.7158 25.4189 25.6101 25.4189 25.293C25.4189 22.8134 21.3649 18.171 14.0078 18.1709ZM14.0078 0C17.8543 0 20.9316 3.03885 20.9316 6.90918C20.9316 10.8098 17.8222 14.0146 14.0078 14.0146C10.2093 14.0144 7.09971 10.8245 7.08398 6.93945C7.08402 3.09959 10.2094 0.000213721 14.0078 0ZM14.0078 2.2832C11.6359 2.28343 9.66427 4.30892 9.66406 6.93848C9.66406 9.61531 11.6679 11.7312 14.0078 11.7314C16.3793 11.7314 18.3516 9.58488 18.3516 6.90918C18.3515 4.27865 16.4115 2.2832 14.0078 2.2832Z" stroke="#427BF0"/>
</svg>
