<svg width="45" height="45" viewBox="0 0 45 45" fill="none" xmlns="http://www.w3.org/2000/svg">
<g clip-path="url(#clip0_321_2411)">
<path d="M22.3792 44.7584C34.7389 44.7584 44.7584 34.7389 44.7584 22.3792C44.7584 10.0195 34.7389 0 22.3792 0C10.0195 0 0 10.0195 0 22.3792C0 34.7389 10.0195 44.7584 22.3792 44.7584Z" fill="#FF8000"/>
<path d="M16.5326 16.6675C16.5326 15.8428 15.8641 15.1743 15.0394 15.1743C14.2148 15.1743 13.5463 15.8428 13.5463 16.6675V20.895C13.5463 21.7197 14.2148 22.3882 15.0394 22.3882C15.8641 22.3882 16.5326 21.7197 16.5326 20.895V16.6675Z" fill="black"/>
<path d="M31.2121 16.6675C31.2121 15.8428 30.5436 15.1743 29.719 15.1743C28.8943 15.1743 28.2258 15.8428 28.2258 16.6675V20.895C28.2258 21.7197 28.8943 22.3882 29.719 22.3882C30.5436 22.3882 31.2121 21.7197 31.2121 20.895V16.6675Z" fill="black"/>
<path d="M16.9553 31.8598C18.1427 29.773 20.2834 28.037 22.775 28.01C25.0687 27.983 26.9217 29.737 27.6772 31.8059C27.9291 32.4895 28.5947 32.9482 29.3413 32.7503C29.9979 32.5704 30.5376 31.7789 30.2857 31.0863C29.1434 27.9471 26.4539 25.3745 22.9729 25.3116C19.4919 25.2486 16.3077 27.5513 14.6347 30.5016C13.7802 32.0127 16.1098 33.371 16.9643 31.8598H16.9553Z" fill="black"/>
</g>
<defs>
<clipPath id="clip0_321_2411">
<rect width="44.7584" height="44.7584" fill="white"/>
</clipPath>
</defs>
</svg>
