<svg width="56" height="56" viewBox="0 0 56 56" fill="none" xmlns="http://www.w3.org/2000/svg">
<path d="M39.4937 14.0095C41.3225 14.0095 43.0764 14.736 44.3696 16.0292C45.6628 17.3224 46.3892 19.0763 46.3892 20.9051V23.2036H48.6878C49.2974 23.2036 49.882 23.4458 50.3131 23.8769C50.7441 24.3079 50.9863 24.8926 50.9863 25.5022V30.0992C50.9863 30.7088 50.7441 31.2935 50.3131 31.7245C49.882 32.1556 49.2974 32.3977 48.6878 32.3977H46.3892V34.6963C46.3892 36.5251 45.6628 38.279 44.3696 39.5722C43.0764 40.8654 41.3225 41.5919 39.4937 41.5919H11.9113C10.0825 41.5919 8.32859 40.8654 7.03542 39.5722C5.74224 38.279 5.01575 36.5251 5.01575 34.6963V20.9051C5.01575 19.0763 5.74224 17.3224 7.03542 16.0292C8.32859 14.736 10.0825 14.0095 11.9113 14.0095H39.4937ZM39.4891 17.4573H11.9113C11.0542 17.4574 10.2279 17.7766 9.59345 18.3529C8.95899 18.9291 8.56191 19.721 8.47963 20.5741L8.46354 20.9051V34.6963C8.46352 35.553 8.78247 36.379 9.35824 37.0134C9.934 37.6478 10.7253 38.0452 11.578 38.128L11.9113 38.1441H39.4891C40.3458 38.1441 41.1718 37.8251 41.8062 37.2494C42.4406 36.6736 42.8379 35.8823 42.9208 35.0296L42.9369 34.6963V20.9051C42.9369 20.0484 42.6179 19.2223 42.0422 18.5879C41.4664 17.9535 40.6751 17.5562 39.8224 17.4734L39.4891 17.4573ZM14.2099 20.912L18.8069 20.9051C19.3699 20.9052 19.9133 21.1119 20.334 21.486C20.7547 21.8601 21.0235 22.3756 21.0894 22.9347L21.1054 23.2036V32.3977C21.1054 32.9607 20.8987 33.5041 20.5246 33.9248C20.1505 34.3455 19.635 34.6143 19.0758 34.6802L18.8069 34.6963L14.2099 34.7032C13.6469 34.7031 13.1035 34.4964 12.6828 34.1223C12.2621 33.7482 11.9933 33.2327 11.9274 32.6736L11.9113 32.4046V23.2105C11.9114 22.6475 12.1181 22.1042 12.4922 21.6835C12.8663 21.2627 13.3818 20.994 13.9409 20.9281L14.2099 20.912Z" fill="#3472EE"/>
</svg>
