<svg width="292" height="71" viewBox="0 0 292 71" fill="none" xmlns="http://www.w3.org/2000/svg">
<path d="M287.5 38H4.5C2.01472 38 0 40.0147 0 42.5C0 44.9853 2.01472 47 4.5 47H287.5C289.985 47 292 44.9853 292 42.5C292 40.0147 289.985 38 287.5 38Z" fill="#E3E3E3"/>
<path d="M190.5 38H4.5C2.01472 38 0 40.0147 0 42.5C0 44.9853 2.01472 47 4.5 47H190.5C192.985 47 195 44.9853 195 42.5C195 40.0147 192.985 38 190.5 38Z" fill="url(#paint0_linear_409_3639)"/>
<path d="M193.882 29.6849L189.553 25.5621L198.211 24.7375L193.882 29.6849Z" fill="#3573EE"/>
<path d="M208.684 9.20386V19.5433C208.684 20.3582 208.52 21.1651 208.201 21.918C207.881 22.6709 207.413 23.355 206.822 23.9312C206.231 24.5075 205.53 24.9646 204.758 25.2763C203.986 25.5881 203.159 25.7485 202.324 25.7483H198.083L194.585 29.1598C194.49 29.2584 194.375 29.3369 194.247 29.3906C194.12 29.4442 193.982 29.4719 193.843 29.4719C193.704 29.4719 193.567 29.4442 193.439 29.3906C193.312 29.3369 193.197 29.2584 193.101 29.1598L189.604 25.7483H185.36C184.524 25.7483 183.697 25.5878 182.926 25.2759C182.154 24.9641 181.453 24.507 180.862 23.9308C180.271 23.3546 179.803 22.6706 179.483 21.9177C179.164 21.1649 178.999 20.3581 179 19.5433V9.20386C179 7.55862 179.67 5.98077 180.863 4.81741C182.055 3.65406 183.673 3.00049 185.36 3.00049H202.322C204.009 3.00049 205.627 3.65406 206.819 4.81741C208.012 5.98077 208.684 7.55862 208.684 9.20386Z" stroke="#3573EE" stroke-width="2" stroke-linecap="round" stroke-linejoin="round"/>
<path d="M207.5 0.000732422H181.5C175.701 0.000732422 171 4.70174 171 10.5007V16.7112C171 22.5102 175.701 27.2112 181.5 27.2112H207.5C213.299 27.2112 218 22.5102 218 16.7112V10.5007C218 4.70174 213.299 0.000732422 207.5 0.000732422Z" fill="#3573EE"/>
<path d="M184.331 18.8198C183.626 18.8198 182.996 18.7006 182.441 18.4621C181.887 18.2236 181.455 17.8949 181.146 17.4759C180.84 17.0537 180.688 16.5767 180.691 16.045C180.688 15.6324 180.777 15.2473 180.957 14.8896C181.141 14.5318 181.391 14.2353 181.706 14.0001C182.022 13.7616 182.372 13.6117 182.756 13.5505V13.4973C182.424 13.4232 182.129 13.2814 181.871 13.0719C181.616 12.8592 181.418 12.5981 181.276 12.2888C181.134 11.9794 181.064 11.6458 181.064 11.2881C181.064 10.7885 181.204 10.3373 181.484 9.93451C181.768 9.53166 182.158 9.21743 182.654 8.99183C183.15 8.76301 183.709 8.6486 184.331 8.6486C184.947 8.6486 185.501 8.76301 185.994 8.99183C186.491 9.21743 186.879 9.53166 187.16 9.93451C187.443 10.3373 187.585 10.7885 187.585 11.2881C187.585 11.6458 187.512 11.9794 187.367 12.2888C187.226 12.5981 187.026 12.8592 186.768 13.0719C186.513 13.2814 186.223 13.4232 185.898 13.4973V13.5505C186.278 13.6117 186.626 13.76 186.942 13.9952C187.258 14.2305 187.508 14.5286 187.691 14.8896C187.875 15.2473 187.968 15.6324 187.972 16.045C187.968 16.5767 187.811 17.0537 187.498 17.4759C187.189 17.8949 186.757 18.2236 186.202 18.4621C185.651 18.7006 185.028 18.8198 184.331 18.8198ZM182.224 15.9434C182.221 16.2657 182.303 16.5526 182.47 16.8039C182.641 17.0521 182.886 17.2455 183.205 17.3841C183.527 17.5226 183.903 17.5919 184.331 17.5919C184.754 17.5919 185.124 17.5226 185.443 17.3841C185.762 17.2455 186.007 17.0521 186.178 16.8039C186.352 16.5558 186.439 16.269 186.439 15.9434C186.439 15.6083 186.347 15.3069 186.164 15.0394C185.983 14.7719 185.732 14.5625 185.41 14.411C185.09 14.2595 184.731 14.1838 184.331 14.1838C183.929 14.1838 183.566 14.2595 183.244 14.411C182.922 14.5625 182.67 14.7719 182.49 15.0394C182.309 15.3069 182.221 15.6083 182.224 15.9434ZM182.533 11.4186C182.533 11.7248 182.609 11.9971 182.76 12.2356C182.915 12.4741 183.128 12.6594 183.398 12.7915C183.672 12.9237 183.983 12.9897 184.331 12.9897C184.673 12.9897 184.979 12.9237 185.25 12.7915C185.524 12.6594 185.737 12.4741 185.888 12.2356C186.043 11.9971 186.12 11.7248 186.12 11.4186C186.12 11.1156 186.044 10.8481 185.893 10.6161C185.745 10.3808 185.534 10.1987 185.26 10.0698C184.989 9.94096 184.68 9.8765 184.331 9.8765C183.974 9.8765 183.66 9.94096 183.389 10.0698C183.118 10.1987 182.907 10.3808 182.756 10.6161C182.607 10.8481 182.533 11.1156 182.533 11.4186ZM193.039 18.8198C192.365 18.8198 191.761 18.7054 191.226 18.4766C190.694 18.2478 190.274 17.9271 189.964 17.5146C189.658 17.1021 189.497 16.6299 189.481 16.0981H191.004C191.02 16.3818 191.118 16.6315 191.299 16.8475C191.482 17.0634 191.724 17.231 192.024 17.3502C192.323 17.4662 192.657 17.5242 193.024 17.5242C193.421 17.5242 193.775 17.4566 194.088 17.3212C194.404 17.1859 194.649 16.9957 194.823 16.7508C195 16.5058 195.089 16.2271 195.089 15.9144C195.092 15.5857 195.005 15.294 194.828 15.0394C194.654 14.7848 194.397 14.5866 194.059 14.4448C193.724 14.303 193.324 14.2321 192.86 14.2321H192.019V13.0042H192.86C193.234 13.0042 193.566 12.9398 193.856 12.8109C194.146 12.6787 194.372 12.4934 194.533 12.2549C194.697 12.0164 194.779 11.7409 194.779 11.4283C194.779 11.1285 194.708 10.8643 194.567 10.6354C194.425 10.4034 194.223 10.2245 193.962 10.0988C193.704 9.97318 193.403 9.91034 193.058 9.91034C192.723 9.91034 192.411 9.96996 192.12 10.0892C191.834 10.2052 191.602 10.3728 191.424 10.5919C191.247 10.8111 191.152 11.0657 191.139 11.3557H189.689C189.705 10.8304 189.864 10.3631 190.167 9.95385C190.47 9.54132 190.876 9.22065 191.386 8.99183C191.895 8.76301 192.457 8.6486 193.073 8.6486C193.701 8.6486 194.256 8.77107 194.736 9.016C195.219 9.25771 195.59 9.58483 195.848 9.99736C196.109 10.4066 196.238 10.8578 196.234 11.3509C196.238 11.7183 196.167 12.0519 196.022 12.3516C195.88 12.6513 195.677 12.9027 195.413 13.1057C195.148 13.3056 194.839 13.449 194.484 13.536V13.6133C194.926 13.6746 195.306 13.8115 195.625 14.0242C195.948 14.237 196.193 14.5093 196.36 14.8412C196.528 15.1732 196.61 15.5487 196.607 15.9676C196.61 16.5091 196.457 16.9973 196.147 17.4324C195.841 17.8643 195.416 18.2043 194.871 18.4524C194.326 18.6974 193.716 18.8198 193.039 18.8198ZM208.055 14.7397H206.759V11.6555H204.458V10.5823H206.759V7.59473H208.055V14.7397ZM197.85 13.6423C198.465 13.4296 199.004 13.1202 199.465 12.7142C199.929 12.3049 200.285 11.8376 200.533 11.3122C200.784 10.7869 200.91 10.2439 200.91 9.68313V9.39307H198.251V8.32954H204.864V9.39307H202.225V9.68796C202.225 10.1971 202.343 10.6951 202.578 11.1817C202.816 11.6684 203.158 12.1034 203.603 12.487C204.051 12.8705 204.576 13.167 205.179 13.3765L204.516 14.4013C203.836 14.1661 203.245 13.8164 202.742 13.3523C202.243 12.8882 201.857 12.3468 201.587 11.728C201.313 12.4112 200.913 13.0074 200.388 13.5167C199.863 14.0259 199.241 14.4062 198.522 14.6575L197.85 13.6423ZM199.967 15.3053H208.055V19.69H199.967V15.3053ZM206.784 18.6361V16.3399H201.268V18.6361H206.784Z" fill="white"/>
<path d="M4.31699 67.1595C3.5564 67.1595 2.90378 66.9597 2.35912 66.5601C1.81768 66.1605 1.40355 65.5787 1.11671 64.8149C0.829878 64.0479 0.686462 63.1278 0.686462 62.0546C0.686462 60.9878 0.829878 60.0741 1.11671 59.3135C1.40677 58.5497 1.82413 57.968 2.36878 57.5684C2.91344 57.1655 3.56285 56.9641 4.31699 56.9641C5.07113 56.9641 5.72053 57.1655 6.26519 57.5684C6.81308 57.968 7.23043 58.5497 7.51727 59.3135C7.80732 60.0741 7.95235 60.9878 7.95235 62.0546C7.95235 63.1278 7.80893 64.0479 7.5221 64.8149C7.23527 65.5787 6.81952 66.1605 6.27486 66.5601C5.7302 66.9597 5.07758 67.1595 4.31699 67.1595ZM2.18508 62.0546C2.18508 62.8699 2.26888 63.5628 2.43646 64.1333C2.60405 64.7005 2.84738 65.1308 3.16644 65.424C3.48872 65.7173 3.87224 65.864 4.31699 65.864C4.76496 65.864 5.14848 65.7173 5.46754 65.424C5.7866 65.1308 6.02993 64.7005 6.19751 64.1333C6.36832 63.5628 6.45373 62.8699 6.45373 62.0546C6.45373 61.2424 6.36832 60.5511 6.19751 59.9807C6.0267 59.4102 5.78177 58.9784 5.46271 58.6851C5.14365 58.3918 4.76174 58.2452 4.31699 58.2452C3.87546 58.2452 3.49517 58.3918 3.17611 58.6851C2.85704 58.9784 2.61211 59.4102 2.4413 59.9807C2.27049 60.5511 2.18508 61.2424 2.18508 62.0546Z" fill="#3573EE"/>
<path d="M272.631 67H271.123V58.6077H271.065L268.701 60.1499V58.7141L271.162 57.0994H272.631V67ZM278.592 67.1595C277.832 67.1595 277.179 66.9597 276.635 66.5601C276.093 66.1605 275.679 65.5787 275.392 64.8149C275.105 64.0479 274.962 63.1278 274.962 62.0546C274.962 60.9878 275.105 60.0741 275.392 59.3135C275.682 58.5497 276.1 57.968 276.644 57.5684C277.189 57.1655 277.838 56.9641 278.592 56.9641C279.347 56.9641 279.996 57.1655 280.541 57.5684C281.088 57.968 281.506 58.5497 281.793 59.3135C282.083 60.0741 282.228 60.9878 282.228 62.0546C282.228 63.1278 282.084 64.0479 281.797 64.8149C281.511 65.5787 281.095 66.1605 280.55 66.5601C280.006 66.9597 279.353 67.1595 278.592 67.1595ZM276.46 62.0546C276.46 62.8699 276.544 63.5628 276.712 64.1333C276.879 64.7005 277.123 65.1308 277.442 65.424C277.764 65.7173 278.148 65.864 278.592 65.864C279.04 65.864 279.424 65.7173 279.743 65.424C280.062 65.1308 280.305 64.7005 280.473 64.1333C280.644 63.5628 280.729 62.8699 280.729 62.0546C280.729 61.2424 280.644 60.5511 280.473 59.9807C280.302 59.4102 280.057 58.9784 279.738 58.6851C279.419 58.3918 279.037 58.2452 278.592 58.2452C278.151 58.2452 277.771 58.3918 277.451 58.6851C277.132 58.9784 276.887 59.4102 276.717 59.9807C276.546 60.5511 276.46 61.2424 276.46 62.0546ZM287.233 67.1595C286.472 67.1595 285.82 66.9597 285.275 66.5601C284.734 66.1605 284.32 65.5787 284.033 64.8149C283.746 64.0479 283.602 63.1278 283.602 62.0546C283.602 60.9878 283.746 60.0741 284.033 59.3135C284.323 58.5497 284.74 57.968 285.285 57.5684C285.829 57.1655 286.479 56.9641 287.233 56.9641C287.987 56.9641 288.637 57.1655 289.181 57.5684C289.729 57.968 290.146 58.5497 290.433 59.3135C290.723 60.0741 290.868 60.9878 290.868 62.0546C290.868 63.1278 290.725 64.0479 290.438 64.8149C290.151 65.5787 289.736 66.1605 289.191 66.5601C288.646 66.9597 287.994 67.1595 287.233 67.1595ZM285.101 62.0546C285.101 62.8699 285.185 63.5628 285.352 64.1333C285.52 64.7005 285.763 65.1308 286.082 65.424C286.405 65.7173 286.788 65.864 287.233 65.864C287.681 65.864 288.064 65.7173 288.384 65.424C288.703 65.1308 288.946 64.7005 289.114 64.1333C289.284 63.5628 289.37 62.8699 289.37 62.0546C289.37 61.2424 289.284 60.5511 289.114 59.9807C288.943 59.4102 288.698 58.9784 288.379 58.6851C288.06 58.3918 287.678 58.2452 287.233 58.2452C286.791 58.2452 286.411 58.3918 286.092 58.6851C285.773 58.9784 285.528 59.4102 285.357 59.9807C285.187 60.5511 285.101 61.2424 285.101 62.0546Z" fill="#3573EE"/>
<defs>
<linearGradient id="paint0_linear_409_3639" x1="0" y1="42.5" x2="195" y2="42.5" gradientUnits="userSpaceOnUse">
<stop stop-color="#3472EE"/>
<stop offset="1" stop-color="#8DB3FF"/>
</linearGradient>
</defs>
</svg>
