<svg width="45" height="45" viewBox="0 0 45 45" fill="none" xmlns="http://www.w3.org/2000/svg">
<g clip-path="url(#clip0_321_2400)">
<path d="M22.5 45C34.9264 45 45 34.9264 45 22.5C45 10.0736 34.9264 0 22.5 0C10.0736 0 0 10.0736 0 22.5C0 34.9264 10.0736 45 22.5 45Z" fill="#DEEC5E"/>
<path d="M16.6218 16.7576C16.6218 15.9285 15.9497 15.2563 15.1206 15.2563C14.2915 15.2563 13.6194 15.9285 13.6194 16.7576V21.008C13.6194 21.837 14.2915 22.5092 15.1206 22.5092C15.9497 22.5092 16.6218 21.837 16.6218 21.008V16.7576Z" fill="black"/>
<path d="M31.3806 16.7576C31.3806 15.9285 30.7085 15.2563 29.8794 15.2563C29.0503 15.2563 28.3782 15.9285 28.3782 16.7576V21.008C28.3782 21.837 29.0503 22.5092 29.8794 22.5092C30.7085 22.5092 31.3806 21.837 31.3806 21.008V16.7576Z" fill="black"/>
<path d="M24.6253 31.5434C25.4544 31.5434 26.1265 30.8713 26.1265 30.0422C26.1265 29.2131 25.4544 28.541 24.6253 28.541H20.3749C19.5458 28.541 18.8737 29.2131 18.8737 30.0422C18.8737 30.8713 19.5458 31.5434 20.3749 31.5434H24.6253Z" fill="black"/>
</g>
<defs>
<clipPath id="clip0_321_2400">
<rect width="45" height="45" fill="white"/>
</clipPath>
</defs>
</svg>
