<svg width="46" height="32" viewBox="0 0 46 32" fill="none" xmlns="http://www.w3.org/2000/svg">
<path d="M0.0928345 31.347V18.0215C0.0928345 17.0221 0.299702 16.1152 0.713437 15.3009C1.12717 14.4865 1.67255 13.7647 2.34957 13.1355V6.9169C2.34957 5.06613 3.00779 3.49299 4.32422 2.19745C5.64065 0.901917 7.23917 0.25415 9.11978 0.25415H18.1467C19.0118 0.25415 19.8205 0.411835 20.5727 0.727205C21.325 1.04257 22.0208 1.47713 22.6602 2.03088C23.2996 1.47565 23.9954 1.04109 24.7477 0.727205C25.4999 0.413316 26.3086 0.255631 27.1737 0.25415H36.2006C38.0812 0.25415 39.6798 0.901917 40.9962 2.19745C42.3126 3.49299 42.9708 5.06613 42.9708 6.9169V13.1355C43.6479 13.7647 44.1932 14.4865 44.607 15.3009C45.0207 16.1152 45.2276 17.0221 45.2276 18.0215V31.347H40.7141V26.9051H4.60631V31.347H0.0928345ZM24.9169 11.3587H38.4574V6.9169C38.4574 6.28764 38.2407 5.76054 37.8074 5.3356C37.3741 4.91067 36.8385 4.69746 36.2006 4.69598H27.1737C26.5343 4.69598 25.9987 4.90919 25.5669 5.3356C25.1351 5.76202 24.9184 6.28912 24.9169 6.9169V11.3587ZM6.86304 11.3587H20.4035V6.9169C20.4035 6.28764 20.1868 5.76054 19.7535 5.3356C19.3202 4.91067 18.7846 4.69746 18.1467 4.69598H9.11978C8.48037 4.69598 7.94477 4.90919 7.51298 5.3356C7.0812 5.76202 6.86455 6.28912 6.86304 6.9169V11.3587Z" fill="#3472EE"/>
</svg>
