<svg width="46" height="46" viewBox="0 0 46 46" fill="none" xmlns="http://www.w3.org/2000/svg">
<path d="M22.5766 45.1529C35.0452 45.1529 45.153 35.0451 45.153 22.5765C45.153 10.1078 35.0452 0 22.5766 0C10.1079 0 0.00012207 10.1078 0.00012207 22.5765C0.00012207 35.0451 10.1079 45.1529 22.5766 45.1529Z" fill="#FFDD00"/>
<path d="M10.6498 18.3136C10.7848 18.1697 10.9377 18.0347 11.0816 17.8998C11.3514 17.648 10.9647 17.9808 11.1356 17.8548C11.2165 17.8009 11.2975 17.7379 11.3784 17.6839C11.5403 17.576 11.7112 17.4771 11.8911 17.3871C11.9811 17.3421 12.071 17.2972 12.161 17.2612C12.3049 17.1982 11.9811 17.3151 12.2239 17.2342C12.6017 17.1083 12.9795 17.0093 13.3753 16.9194C13.6361 16.8654 13.2673 16.9194 13.4292 16.9104C13.5282 16.9014 13.6271 16.8924 13.7261 16.8834C13.924 16.8654 14.1218 16.8654 14.3287 16.8654C14.5356 16.8654 14.7245 16.8834 14.9224 16.9014C15.0483 16.9194 15.0573 16.9104 14.9224 16.9014C15.0393 16.9194 15.1563 16.9374 15.2732 16.9643C15.642 17.0453 16.0018 17.1532 16.3526 17.2882C16.4965 17.3421 16.1907 17.1982 16.4155 17.3151C16.5055 17.3601 16.5954 17.4051 16.6764 17.4501C16.8473 17.54 17.0182 17.648 17.1801 17.7559C17.2611 17.8099 17.342 17.8638 17.423 17.9268C17.2701 17.8099 17.396 17.9088 17.4679 17.9808C17.6298 18.1337 17.7828 18.2776 17.9357 18.4395C18.4304 18.9792 19.3479 18.9342 19.8426 18.4395C20.3823 17.8998 20.3373 17.0723 19.8426 16.5326C17.0092 13.4294 11.6393 13.3934 8.73393 16.4067C8.23021 16.9284 8.21222 17.7919 8.73393 18.3136C9.25563 18.8353 10.1371 18.8443 10.6408 18.3136H10.6498Z" fill="black"/>
<path d="M26.8145 18.3136C26.9494 18.1697 27.1023 18.0347 27.2463 17.8998C27.5161 17.648 27.1293 17.9808 27.3002 17.8548C27.3812 17.8009 27.4621 17.7379 27.5431 17.6839C27.705 17.576 27.8759 17.4771 28.0558 17.3871C28.1457 17.3421 28.2357 17.2972 28.3256 17.2612C28.4696 17.1982 28.1457 17.3151 28.3886 17.2342C28.7664 17.1083 29.1442 17.0093 29.5399 16.9194C29.8008 16.8654 29.432 16.9194 29.5939 16.9104C29.6929 16.9014 29.7918 16.8924 29.8907 16.8834C30.0886 16.8654 30.2865 16.8654 30.4934 16.8654C30.7003 16.8654 30.8892 16.8834 31.0871 16.9014C31.213 16.9194 31.222 16.9104 31.0871 16.9014C31.204 16.9194 31.3209 16.9374 31.4379 16.9643C31.8067 17.0453 32.1665 17.1532 32.5173 17.2882C32.6612 17.3421 32.3553 17.1982 32.5802 17.3151C32.6702 17.3601 32.7601 17.4051 32.8411 17.4501C33.012 17.54 33.1829 17.648 33.3448 17.7559C33.4257 17.8099 33.5067 17.8638 33.5876 17.9268C33.4347 17.8099 33.5607 17.9088 33.6326 17.9808C33.7945 18.1337 33.9474 18.2776 34.1003 18.4395C34.5951 18.9792 35.5125 18.9342 36.0073 18.4395C36.5469 17.8998 36.502 17.0723 36.0073 16.5326C33.1739 13.4294 27.8039 13.3934 24.8986 16.4067C24.3949 16.9284 24.3769 17.7919 24.8986 18.3136C25.4203 18.8353 26.3018 18.8443 26.8055 18.3136H26.8145Z" fill="black"/>
<path d="M10.9587 22.4062C10.446 29.0444 15.8789 34.882 22.5351 34.7831C29.1913 34.6841 34.4983 28.7565 33.7787 22.1093C33.5988 20.4003 30.8913 20.3823 31.0802 22.1093C31.6379 27.2634 27.8331 32.0127 22.5351 32.0846C17.2371 32.1566 13.2524 27.6052 13.6572 22.4062C13.7921 20.6701 11.0936 20.6791 10.9587 22.4062Z" fill="black"/>
</svg>
