<svg width="225" height="225" viewBox="0 0 225 225" fill="none" xmlns="http://www.w3.org/2000/svg">
<path d="M111.668 116.689H92.1599V114.245H100.389V111.021H94.4057V103.844H106.464V101.524H94.3726V99.1202H109.422V106.189H97.3891V108.593H109.92V111.021H103.348V114.245H111.668V116.689ZM129.991 101.606C129.986 102.838 129.969 103.902 129.941 104.797C129.914 105.687 129.836 106.728 129.709 107.921C129.588 109.115 129.397 110.413 129.138 111.816L126.121 111.501C126.375 110.253 126.563 109.07 126.684 107.954C126.812 106.833 126.892 105.83 126.925 104.946C126.963 104.057 126.986 103.062 126.991 101.963H114.428V99.5843H129.991V101.606ZM112.422 114.029H119.383V106.695H122.35V114.029H131.881V116.457H112.422V114.029Z" fill="black"/>
<g filter="url(#filter0_d_579_1357)">
<path d="M176.439 12H48.5614C30.5782 12 16 26.5782 16 44.5614V172.439C16 190.422 30.5782 205 48.5614 205H176.439C194.422 205 209 190.422 209 172.439V44.5614C209 26.5782 194.422 12 176.439 12Z" fill="white"/>
</g>
<path d="M161.938 95.913H58.8667C57.2054 95.913 55.8587 97.1658 55.8587 98.7112V118.289C55.8587 119.834 57.2054 121.087 58.8667 121.087H161.938C163.599 121.087 164.946 119.834 164.946 118.289V98.7112C164.946 97.1658 163.599 95.913 161.938 95.913Z" fill="url(#paint0_linear_579_1357)"/>
<path d="M161.574 53.9565H59.2301C57.3681 53.9565 55.8587 55.4398 55.8587 57.2694V84.2089C55.8587 86.0385 57.3681 87.5218 59.2301 87.5218H161.574C163.436 87.5218 164.946 86.0385 164.946 84.2089V57.2694C164.946 55.4398 163.436 53.9565 161.574 53.9565Z" fill="url(#paint1_linear_579_1357)"/>
<path d="M152.126 68.102H134.808C134.216 68.102 133.735 68.5823 133.735 69.1749V72.8288C133.735 73.4214 134.216 73.9017 134.808 73.9017H152.126C152.719 73.9017 153.199 73.4214 153.199 72.8288V69.1749C153.199 68.5823 152.719 68.102 152.126 68.102Z" fill="white"/>
<path d="M146.367 79.6609V62.3427C146.367 61.7502 145.887 61.2698 145.294 61.2698H141.64C141.048 61.2698 140.567 61.7502 140.567 62.3427V79.6609C140.567 80.2535 141.048 80.7338 141.64 80.7338H145.294C145.887 80.7338 146.367 80.2535 146.367 79.6609Z" fill="white"/>
<path d="M131.278 138.083C130.117 132.3 124.254 106.86 114.666 126.022C105.694 143.96 70.8053 141.723 59.4515 140.478C57.5239 140.267 55.8587 142.061 55.8587 144.351V160.389C55.8587 160.59 55.889 160.748 55.9192 160.906V165.285C55.9192 167.522 57.6551 169.337 59.7947 169.337H67.4042C69.5438 169.337 71.2796 167.522 71.2796 165.285V163.259C119.601 164.969 129.31 145.553 131.137 140.436C131.399 139.687 131.45 138.864 131.288 138.072L131.278 138.083Z" fill="url(#paint2_linear_579_1357)"/>
<path d="M114.598 129.478C114.598 129.478 123.538 142.738 121.695 150.457C121.695 150.457 131.448 143.416 128.839 141.816L114.598 129.478Z" fill="url(#paint3_linear_579_1357)"/>
<path d="M160.567 153.866H159.141C153.147 120.775 128.342 95.9599 98.6536 95.9599C83.6062 95.9599 69.8267 94.6978 59.1082 105.273C58.3355 106.037 57.9195 107.207 57.9591 108.408C58.0582 111.91 58.0681 115.411 58.0483 118.923C58.0384 121.091 59.4946 122.852 61.2876 122.852L85.835 123.31C86.1223 123.31 86.4096 123.259 86.687 123.167C89.6687 122.149 92.3038 121.966 95.5728 121.966C113.463 121.966 131.225 145.071 132.731 165.825C132.879 167.82 134.296 169.337 135.95 169.337H160.567C162.984 169.337 164.946 167.322 164.946 164.838V158.344C164.946 155.861 162.984 153.845 160.567 153.845V153.866Z" fill="url(#paint4_linear_579_1357)"/>
<path d="M102.011 121.087C102.011 121.087 95.3374 116.707 85.2283 116.897C85.2283 116.897 94.5552 118.66 95.9513 121.087H102.011Z" fill="url(#paint5_linear_579_1357)"/>
<defs>
<filter id="filter0_d_579_1357" x="0.3" y="0.3" width="224.4" height="224.4" filterUnits="userSpaceOnUse" color-interpolation-filters="sRGB">
<feFlood flood-opacity="0" result="BackgroundImageFix"/>
<feColorMatrix in="SourceAlpha" type="matrix" values="0 0 0 0 0 0 0 0 0 0 0 0 0 0 0 0 0 0 127 0" result="hardAlpha"/>
<feOffset dy="4"/>
<feGaussianBlur stdDeviation="7.85"/>
<feComposite in2="hardAlpha" operator="out"/>
<feColorMatrix type="matrix" values="0 0 0 0 0 0 0 0 0 0 0 0 0 0 0 0 0 0 0.06 0"/>
<feBlend mode="normal" in2="BackgroundImageFix" result="effect1_dropShadow_579_1357"/>
<feBlend mode="normal" in="SourceGraphic" in2="effect1_dropShadow_579_1357" result="shape"/>
</filter>
<linearGradient id="paint0_linear_579_1357" x1="55.8587" y1="108.505" x2="164.946" y2="108.505" gradientUnits="userSpaceOnUse">
<stop stop-color="#486BFF"/>
<stop offset="1" stop-color="#2C58D8"/>
</linearGradient>
<linearGradient id="paint1_linear_579_1357" x1="55.8587" y1="70.7392" x2="164.946" y2="70.7392" gradientUnits="userSpaceOnUse">
<stop stop-color="#486BFF"/>
<stop offset="1" stop-color="#2C58D8"/>
</linearGradient>
<linearGradient id="paint2_linear_579_1357" x1="55.8486" y1="144.171" x2="131.369" y2="144.171" gradientUnits="userSpaceOnUse">
<stop stop-color="#486BFF"/>
<stop offset="1" stop-color="#2C58D8"/>
</linearGradient>
<linearGradient id="paint3_linear_579_1357" x1="119.049" y1="139.484" x2="125.427" y2="135.743" gradientUnits="userSpaceOnUse">
<stop stop-color="#223972"/>
<stop offset="1"/>
</linearGradient>
<linearGradient id="paint4_linear_579_1357" x1="57.9492" y1="132.633" x2="164.946" y2="132.633" gradientUnits="userSpaceOnUse">
<stop stop-color="#486BFF"/>
<stop offset="1" stop-color="#2C58D8"/>
</linearGradient>
<linearGradient id="paint5_linear_579_1357" x1="93.575" y1="119.051" x2="95.7578" y2="115.676" gradientUnits="userSpaceOnUse">
<stop stop-color="#223972"/>
<stop offset="1"/>
</linearGradient>
</defs>
</svg>
