<svg width="155" height="33" viewBox="0 0 155 33" fill="none" xmlns="http://www.w3.org/2000/svg">
<path d="M2.15 22.625H12.125V25.565H36.1V32.74H2.15V22.625ZM0.225 12.755V0.959999H9.15V2.045C11.285 1.24 13.525 0.785 15.835 0.785C21.785 0.785 24.69 3.06 24.69 8.03C24.69 9.92 24.375 12.23 23.675 14.575H24.34L24.69 21.575H10.48C2.43 21.575 0.225 19.405 0.225 12.755ZM9.15 11.88C9.15 14.155 9.815 14.575 12.195 14.575H15.59C15.94 13.21 16.115 11.985 16.115 10.48C16.115 8.38 14.96 7.645 12.545 7.645C11.46 7.645 10.305 7.82 9.15 8.1V11.88ZM26.125 24.34V0.259998H35.4V8.485H37.85V17.06H35.4V24.34H26.125ZM65.8541 0.434998L75.6541 0.259998V18.635H65.8541V0.434998ZM39.7791 18.11C39.7791 10.725 40.6541 8.555 43.0341 6.525H39.9541V0.399998H64.4191V6.525H52.3441C51.8191 7.015 51.3991 7.505 51.0141 7.995C52.7641 7.575 54.4441 7.4 56.2641 7.4C62.3541 7.4 64.5941 8.87 64.5941 12.615V18.11L55.6691 18.46V15.59C55.6691 14.505 55.2841 13.875 53.1491 13.875C51.8541 13.875 50.3841 14.12 48.8091 14.715C48.7391 15.8 48.7041 17.025 48.7041 18.46L39.7791 18.11ZM42.2291 23.36V19.51H75.6541V27.525H52.0291V28.54H76.1791V32.74H42.4041V24.375H66.0291V23.36H42.2291ZM80.5582 22.625H90.5332V25.565H114.508V32.74H80.5582V22.625ZM78.6332 12.755V0.959999H87.5582V2.045C89.6932 1.24 91.9332 0.785 94.2432 0.785C100.193 0.785 103.098 3.06 103.098 8.03C103.098 9.92 102.783 12.23 102.083 14.575H102.748L103.098 21.575H88.8882C80.8382 21.575 78.6332 19.405 78.6332 12.755ZM87.5582 11.88C87.5582 14.155 88.2232 14.575 90.6032 14.575H93.9982C94.3482 13.21 94.5232 11.985 94.5232 10.48C94.5232 8.38 93.3682 7.645 90.9532 7.645C89.8682 7.645 88.7132 7.82 87.5582 8.1V11.88ZM104.533 24.34V0.259998H113.808V8.485H116.258V17.06H113.808V24.34H104.533ZM144.262 0.434998L154.062 0.259998V18.635H144.262V0.434998ZM118.187 18.11C118.187 10.725 119.062 8.555 121.442 6.525H118.362V0.399998H142.827V6.525H130.752C130.227 7.015 129.807 7.505 129.422 7.995C131.172 7.575 132.852 7.4 134.672 7.4C140.762 7.4 143.002 8.87 143.002 12.615V18.11L134.077 18.46V15.59C134.077 14.505 133.692 13.875 131.557 13.875C130.262 13.875 128.792 14.12 127.217 14.715C127.147 15.8 127.112 17.025 127.112 18.46L118.187 18.11ZM120.637 23.36V19.51H154.062V27.525H130.437V28.54H154.587V32.74H120.812V24.375H144.437V23.36H120.637Z" fill="#1D4ED8"/>
</svg>
