<svg width="153" height="37" viewBox="0 0 153 37" fill="none" xmlns="http://www.w3.org/2000/svg">
<path d="M18.1387 36.373C6.20312 36.373 2.18359 33.7891 2.18359 28.8672V23.2891H10.3867V27.5957C10.3867 28.9492 11.4121 29.6055 18.1387 29.6055C24.7012 29.6055 29.418 29.1133 33.6836 28.2109V34.9785C29.623 35.7168 23.8398 36.373 18.1387 36.373ZM0.666016 19.6797V0.8125H21.1738V19.6797C17.7695 20.8281 14.4062 21.4434 10.9199 21.4434C7.43359 21.4434 4.07031 20.8281 0.666016 19.6797ZM8.86914 14.2656C9.64844 14.5527 10.3457 14.6758 11.125 14.6758C11.9043 14.6758 12.6016 14.5527 13.3809 14.2656V7.58008H8.86914V14.2656ZM25.2754 24.4785V-0.0078125H33.4785V6.80078H37.1699V13.6914H33.4785V24.4785H25.2754ZM58.1289 36.7832C44.9219 36.7832 41.9688 34.1582 41.9688 29.1543V25.75H65.4707V24.3965H42.0508V19.7207H73.6738V30.1797H50.1719V30.5078C50.1719 31.2051 51.9355 31.6973 58.7441 31.6973C64.6914 31.6973 70.0645 31.4512 73.8789 30.959V35.9629C69.9414 36.5371 64.8965 36.7832 58.1289 36.7832ZM38.6875 19.3926V11.5996C42.9531 11.2715 46.3984 9.87695 46.3984 7.04688V6.80078H39.4258V0.402344H61.5742V6.80078H54.6016V6.88281C54.6016 7.375 54.5605 7.82617 54.5195 8.31836C55.75 10.041 60.0566 11.4766 63.9531 11.9277L60.918 18.4082C56.9395 17.6289 54.1094 16.2754 51.8535 14.1426C49.1875 17.1367 44.7168 19.1465 38.6875 19.3926ZM65.4707 18.5312V-0.0078125H73.6738V18.5312H65.4707ZM96.8887 36.373C84.9531 36.373 80.9336 33.7891 80.9336 28.8672V23.2891H89.1367V27.5957C89.1367 28.9492 90.1621 29.6055 96.8887 29.6055C103.451 29.6055 108.168 29.1133 112.434 28.2109V34.9785C108.373 35.7168 102.59 36.373 96.8887 36.373ZM79.416 19.6797V0.8125H99.9238V19.6797C96.5195 20.8281 93.1562 21.4434 89.6699 21.4434C86.1836 21.4434 82.8203 20.8281 79.416 19.6797ZM87.6191 14.2656C88.3984 14.5527 89.0957 14.6758 89.875 14.6758C90.6543 14.6758 91.3516 14.5527 92.1309 14.2656V7.58008H87.6191V14.2656ZM104.025 24.4785V-0.0078125H112.229V6.80078H115.92V13.6914H112.229V24.4785H104.025ZM136.879 36.7832C123.672 36.7832 120.719 34.1582 120.719 29.1543V25.75H144.221V24.3965H120.801V19.7207H152.424V30.1797H128.922V30.5078C128.922 31.2051 130.686 31.6973 137.494 31.6973C143.441 31.6973 148.814 31.4512 152.629 30.959V35.9629C148.691 36.5371 143.646 36.7832 136.879 36.7832ZM117.438 19.3926V11.5996C121.703 11.2715 125.148 9.87695 125.148 7.04688V6.80078H118.176V0.402344H140.324V6.80078H133.352V6.88281C133.352 7.375 133.311 7.82617 133.27 8.31836C134.5 10.041 138.807 11.4766 142.703 11.9277L139.668 18.4082C135.689 17.6289 132.859 16.2754 130.604 14.1426C127.938 17.1367 123.467 19.1465 117.438 19.3926ZM144.221 18.5312V-0.0078125H152.424V18.5312H144.221Z" fill="white"/>
</svg>
